<svg width="21" height="20" viewBox="0 0 21 20" fill="none" xmlns="http://www.w3.org/2000/svg">
<path d="M20.1342 10.2102C20.1342 9.44107 19.5107 8.81756 18.7416 8.81756H11.7783V1.85427C11.7783 1.08512 11.1547 0.461609 10.3856 0.461609C9.61646 0.461609 8.99294 1.08512 8.99294 1.85427V8.81756H2.02965C1.26051 8.81756 0.636993 9.44107 0.636993 10.2102C0.636993 10.9794 1.26051 11.6029 2.02965 11.6029H8.99294V18.5662C8.99294 19.3353 9.61646 19.9588 10.3856 19.9588C11.1547 19.9588 11.7783 19.3353 11.7783 18.5662V11.6029H18.7416C19.5107 11.6029 20.1342 10.9794 20.1342 10.2102Z" fill="white"/>
</svg>
